<svg xmlns="http://www.w3.org/2000/svg" width="2400" height="1600" viewBox="0 0 2400 1600"><defs>
<linearGradient id="g" x2="1" y2="1"><stop stop-color="#91a65b"/><stop offset=".55" stop-color="#718a49"/><stop offset="1" stop-color="#4e704b"/></linearGradient>
<linearGradient id="m" x2="1" y2="1"><stop stop-color="#4d7860"/><stop offset="1" stop-color="#315c55"/></linearGradient>
<pattern id="grain" width="60" height="60" patternUnits="userSpaceOnUse"><circle cx="8" cy="10" r="3" fill="#d8ca83" opacity=".08"/><circle cx="43" cy="33" r="4" fill="#1d351f" opacity=".07"/></pattern>
<g id="t"><ellipse cy="18" rx="20" ry="8" fill="#142014" opacity=".32"/><rect x="-3" y="-2" width="7" height="23" fill="#644526"/><circle cx="-10" cy="-5" r="15" fill="#245b31" stroke="#153b25" stroke-width="2"/><circle cx="10" cy="-6" r="16" fill="#2f7237" stroke="#153b25" stroke-width="2"/><circle cy="-18" r="17" fill="#3d813d" stroke="#153b25" stroke-width="2"/><circle cy="3" r="16" fill="#20522e" stroke="#153b25" stroke-width="2"/></g>
<pattern id="forest" width="96" height="84" patternUnits="userSpaceOnUse"><use href="#t" transform="translate(22 45) scale(.78)"/><use href="#t" transform="translate(70 28) scale(.92)"/><use href="#t" transform="translate(78 72) scale(.58)"/></pattern>
<g id="h"><ellipse cy="18" rx="27" ry="9" fill="#172014" opacity=".3"/><rect x="-21" y="-12" width="42" height="33" fill="#bd9a60" stroke="#513724" stroke-width="3"/><path d="M-28-11L0-35L29-11Z" fill="#743e2b" stroke="#452b20" stroke-width="3"/><rect x="-4" y="5" width="10" height="16" fill="#4a2a1b"/><rect x="-16" y="-3" width="8" height="8" fill="#e3bd59" stroke="#55371f" stroke-width="2"/></g>
<g id="b"><ellipse rx="62" ry="28" fill="#71884c" stroke="#465a37" stroke-width="5"/><path d="M-25 5Q0-35 26 5" fill="none" stroke="#474433" stroke-width="5"/></g>
<pattern id="reeds" width="48" height="48" patternUnits="userSpaceOnUse"><path d="M8 46L6 19M18 46L21 13M32 46L30 21M42 46L45 17" stroke="#668846" stroke-width="3" opacity=".65"/></pattern>
</defs><rect width="2400" height="1600" fill="url(#g)"/><rect width="2400" height="1600" fill="url(#grain)"/><ellipse cx="650" cy="740" rx="370" ry="280" fill="#a1b45f" opacity=".25"/><path d="M990 0H2400V720C2150 690 1960 620 1660 720C1410 630 1180 600 1020 410Z" fill="#1f4d31" opacity=".58"/><path d="M990 0H2400V720C2150 690 1960 620 1660 720C1410 630 1180 600 1020 410Z" fill="url(#forest)" opacity=".98"/><path d="M1680 780C1930 750 2250 830 2400 1010V1600H1770C1640 1360 1610 1060 1680 780Z" fill="url(#m)"/><path d="M1680 780C1930 750 2250 830 2400 1010V1600H1770C1640 1360 1610 1060 1680 780Z" fill="url(#reeds)" opacity=".65"/><path d="M0 1100C220 1050 430 1100 560 1290L500 1600H0Z" fill="#a59d59" opacity=".54"/><path d="M1190-20C1180 180 1240 330 1280 520C1310 690 1500 700 1650 820C1810 930 1930 1060 2110 1120C2250 1170 2350 1190 2420 1200" fill="none" stroke="#4a3c28" stroke-width="60" opacity=".7"/><path d="M1190-20C1180 180 1240 330 1280 520C1310 690 1500 700 1650 820C1810 930 1930 1060 2110 1120C2250 1170 2350 1190 2420 1200" fill="none" stroke="#2a697c" stroke-width="41"/><path d="M1190-20C1180 180 1240 330 1280 520C1310 690 1500 700 1650 820C1810 930 1930 1060 2110 1120C2250 1170 2350 1190 2420 1200" fill="none" stroke="#7caeb2" stroke-width="8" opacity=".7"/><path d="M-20 890C260 880 430 850 630 840S1040 830 1280 800S1650 790 1840 820S2200 775 2420 760" fill="none" stroke="#503c26" stroke-width="72" stroke-linecap="round" opacity=".78"/><path d="M-20 890C260 880 430 850 630 840S1040 830 1280 800S1650 790 1840 820S2200 775 2420 760" fill="none" stroke="#c9ad70" stroke-width="54" stroke-linecap="round"/><path d="M-20 890C260 880 430 850 630 840S1040 830 1280 800S1650 790 1840 820S2200 775 2420 760" fill="none" stroke="#ecd99d" stroke-width="7" opacity=".55"/><path d="M520-20C530 240 550 430 590 620S620 840 605 1040S630 1390 650 1620" fill="none" stroke="#503c26" stroke-width="60" stroke-linecap="round" opacity=".78"/><path d="M520-20C530 240 550 430 590 620S620 840 605 1040S630 1390 650 1620" fill="none" stroke="#c9ad70" stroke-width="42" stroke-linecap="round"/><path d="M520-20C530 240 550 430 590 620S620 840 605 1040S630 1390 650 1620" fill="none" stroke="#ecd99d" stroke-width="6" opacity=".55"/><path d="M680 830C840 875 970 930 1180 980" fill="none" stroke="#503c26" stroke-width="47" stroke-linecap="round" opacity=".78"/><path d="M680 830C840 875 970 930 1180 980" fill="none" stroke="#c9ad70" stroke-width="29" stroke-linecap="round"/><path d="M680 830C840 875 970 930 1180 980" fill="none" stroke="#ecd99d" stroke-width="4" opacity=".55"/><path d="M820 820C980 720 1120 650 1280 610" fill="none" stroke="#503c26" stroke-width="45" stroke-linecap="round" opacity=".78"/><path d="M820 820C980 720 1120 650 1280 610" fill="none" stroke="#c9ad70" stroke-width="27" stroke-linecap="round"/><path d="M820 820C980 720 1120 650 1280 610" fill="none" stroke="#ecd99d" stroke-width="3" opacity=".55"/><path d="M1270 610C1400 500 1500 400 1600 330" fill="none" stroke="#503c26" stroke-width="43" stroke-linecap="round" opacity=".78"/><path d="M1270 610C1400 500 1500 400 1600 330" fill="none" stroke="#c9ad70" stroke-width="25" stroke-linecap="round"/><path d="M1270 610C1400 500 1500 400 1600 330" fill="none" stroke="#ecd99d" stroke-width="3" opacity=".55"/><path d="M1530 790C1620 670 1730 560 1840 510" fill="none" stroke="#503c26" stroke-width="38" stroke-linecap="round" opacity=".78"/><path d="M1530 790C1620 670 1730 560 1840 510" fill="none" stroke="#c9ad70" stroke-width="20" stroke-linecap="round"/><path d="M1530 790C1620 670 1730 560 1840 510" fill="none" stroke="#ecd99d" stroke-width="3" opacity=".55"/><path d="M350 850C260 1070 220 1210 180 1290" fill="none" stroke="#503c26" stroke-width="33" stroke-linecap="round" opacity=".78"/><path d="M350 850C260 1070 220 1210 180 1290" fill="none" stroke="#c9ad70" stroke-width="15" stroke-linecap="round"/><path d="M350 850C260 1070 220 1210 180 1290" fill="none" stroke="#ecd99d" stroke-width="3" opacity=".55"/><path d="M650 930C760 1080 830 1190 920 1300" fill="none" stroke="#503c26" stroke-width="33" stroke-linecap="round" opacity=".78"/><path d="M650 930C760 1080 830 1190 920 1300" fill="none" stroke="#c9ad70" stroke-width="15" stroke-linecap="round"/><path d="M650 930C760 1080 830 1190 920 1300" fill="none" stroke="#ecd99d" stroke-width="3" opacity=".55"/><path d="M1090 950C1230 1120 1390 1240 1510 1300" fill="none" stroke="#503c26" stroke-width="33" stroke-linecap="round" opacity=".78"/><path d="M1090 950C1230 1120 1390 1240 1510 1300" fill="none" stroke="#c9ad70" stroke-width="15" stroke-linecap="round"/><path d="M1090 950C1230 1120 1390 1240 1510 1300" fill="none" stroke="#ecd99d" stroke-width="3" opacity=".55"/><ellipse cx="120" cy="420" rx="180" ry="390" fill="#255237" opacity=".45"/><ellipse cx="120" cy="420" rx="180" ry="390" fill="url(#forest)" opacity=".9"/><ellipse cx="470" cy="40" rx="470" ry="90" fill="#255237" opacity=".45"/><ellipse cx="470" cy="40" rx="470" ry="90" fill="url(#forest)" opacity=".9"/><ellipse cx="1050" cy="1330" rx="250" ry="160" fill="#255237" opacity=".45"/><ellipse cx="1050" cy="1330" rx="250" ry="160" fill="url(#forest)" opacity=".9"/><ellipse cx="1510" cy="1370" rx="280" ry="170" fill="#255237" opacity=".45"/><ellipse cx="1510" cy="1370" rx="280" ry="170" fill="url(#forest)" opacity=".9"/><ellipse cx="300" cy="1540" rx="410" ry="120" fill="#255237" opacity=".45"/><ellipse cx="300" cy="1540" rx="410" ry="120" fill="url(#forest)" opacity=".9"/><ellipse cx="650" cy="820" rx="185" ry="135" fill="none" stroke="#4b3d29" stroke-width="22"/><ellipse cx="650" cy="820" rx="185" ry="135" fill="none" stroke="#988154" stroke-width="13"/><use href="#h" transform="translate(560 760) scale(0.9)"/><use href="#h" transform="translate(620 755) scale(0.95)"/><use href="#h" transform="translate(700 745) scale(0.9)"/><use href="#h" transform="translate(760 785) scale(0.8)"/><use href="#h" transform="translate(550 840) scale(0.85)"/><use href="#h" transform="translate(610 850) scale(0.92)"/><use href="#h" transform="translate(690 840) scale(0.92)"/><use href="#h" transform="translate(745 875) scale(0.78)"/><use href="#h" transform="translate(585 905) scale(0.86)"/><use href="#h" transform="translate(670 915) scale(0.88)"/><use href="#h" transform="translate(650 805) scale(1.55)"/><use href="#h" transform="translate(933 909) scale(0.85)"/><use href="#h" transform="translate(1088 995) scale(0.94)"/><use href="#h" transform="translate(1011 927) scale(0.73)"/><use href="#h" transform="translate(1073 911) scale(0.89)"/><use href="#h" transform="translate(1069 962) scale(0.83)"/><use href="#h" transform="translate(1176 935) scale(0.86)"/><use href="#h" transform="translate(989 962) scale(0.75)"/><use href="#h" transform="translate(1019 887) scale(0.93)"/><use href="#h" transform="translate(1005 952) scale(0.87)"/><use href="#h" transform="translate(994 922) scale(0.89)"/><use href="#h" transform="translate(1041 911) scale(0.81)"/><use href="#h" transform="translate(969 878) scale(0.90)"/><use href="#h" transform="translate(978 1014) scale(0.90)"/><use href="#h" transform="translate(1348 657) scale(0.76)"/><use href="#h" transform="translate(1194 565) scale(0.83)"/><use href="#h" transform="translate(1253 621) scale(0.77)"/><use href="#h" transform="translate(1333 614) scale(0.81)"/><use href="#h" transform="translate(1295 535) scale(0.89)"/><use href="#h" transform="translate(1253 559) scale(0.90)"/><use href="#h" transform="translate(1304 591) scale(0.80)"/><use href="#h" transform="translate(1344 581) scale(0.75)"/><use href="#h" transform="translate(1228 625) scale(0.80)"/><use href="#h" transform="translate(1392 624) scale(0.84)"/><use href="#h" transform="translate(1558 281) scale(0.83)"/><use href="#h" transform="translate(1567 317) scale(0.90)"/><use href="#h" transform="translate(1627 268) scale(0.92)"/><use href="#h" transform="translate(1662 328) scale(0.84)"/><use href="#h" transform="translate(1631 313) scale(0.79)"/><use href="#h" transform="translate(1635 294) scale(0.81)"/><use href="#h" transform="translate(1597 373) scale(0.74)"/><use href="#h" transform="translate(1626 304) scale(0.76)"/><use href="#h" transform="translate(1638 318) scale(0.81)"/><use href="#h" transform="translate(850 1180)"/><path d="M765 1218L930 1204" stroke="#5b692f" stroke-width="5" opacity=".5"/><path d="M765 1229L930 1215" stroke="#5b692f" stroke-width="5" opacity=".5"/><path d="M765 1240L930 1226" stroke="#5b692f" stroke-width="5" opacity=".5"/><path d="M765 1251L930 1237" stroke="#5b692f" stroke-width="5" opacity=".5"/><path d="M765 1262L930 1248" stroke="#5b692f" stroke-width="5" opacity=".5"/><use href="#h" transform="translate(1040 1260)"/><path d="M955 1298L1120 1284" stroke="#5b692f" stroke-width="5" opacity=".5"/><path d="M955 1309L1120 1295" stroke="#5b692f" stroke-width="5" opacity=".5"/><path d="M955 1320L1120 1306" stroke="#5b692f" stroke-width="5" opacity=".5"/><path d="M955 1331L1120 1317" stroke="#5b692f" stroke-width="5" opacity=".5"/><path d="M955 1342L1120 1328" stroke="#5b692f" stroke-width="5" opacity=".5"/><use href="#h" transform="translate(1300 1210)"/><path d="M1215 1248L1380 1234" stroke="#5b692f" stroke-width="5" opacity=".5"/><path d="M1215 1259L1380 1245" stroke="#5b692f" stroke-width="5" opacity=".5"/><path d="M1215 1270L1380 1256" stroke="#5b692f" stroke-width="5" opacity=".5"/><path d="M1215 1281L1380 1267" stroke="#5b692f" stroke-width="5" opacity=".5"/><path d="M1215 1292L1380 1278" stroke="#5b692f" stroke-width="5" opacity=".5"/><use href="#h" transform="translate(310 1080)"/><path d="M225 1118L390 1104" stroke="#5b692f" stroke-width="5" opacity=".5"/><path d="M225 1129L390 1115" stroke="#5b692f" stroke-width="5" opacity=".5"/><path d="M225 1140L390 1126" stroke="#5b692f" stroke-width="5" opacity=".5"/><path d="M225 1151L390 1137" stroke="#5b692f" stroke-width="5" opacity=".5"/><path d="M225 1162L390 1148" stroke="#5b692f" stroke-width="5" opacity=".5"/><use href="#h" transform="translate(340 1320)"/><path d="M255 1358L420 1344" stroke="#5b692f" stroke-width="5" opacity=".5"/><path d="M255 1369L420 1355" stroke="#5b692f" stroke-width="5" opacity=".5"/><path d="M255 1380L420 1366" stroke="#5b692f" stroke-width="5" opacity=".5"/><path d="M255 1391L420 1377" stroke="#5b692f" stroke-width="5" opacity=".5"/><path d="M255 1402L420 1388" stroke="#5b692f" stroke-width="5" opacity=".5"/><use href="#h" transform="translate(1450 1460)"/><path d="M1365 1498L1530 1484" stroke="#5b692f" stroke-width="5" opacity=".5"/><path d="M1365 1509L1530 1495" stroke="#5b692f" stroke-width="5" opacity=".5"/><path d="M1365 1520L1530 1506" stroke="#5b692f" stroke-width="5" opacity=".5"/><path d="M1365 1531L1530 1517" stroke="#5b692f" stroke-width="5" opacity=".5"/><path d="M1365 1542L1530 1528" stroke="#5b692f" stroke-width="5" opacity=".5"/><use href="#b" transform="translate(150 1230) scale(1)"/><use href="#b" transform="translate(300 1380) scale(1.25)"/><use href="#b" transform="translate(430 1210) scale(0.85)"/><ellipse cx="1820" cy="910" rx="60" ry="25" fill="#2c6874" stroke="#5c8c84" stroke-width="3" opacity=".75"/><ellipse cx="1960" cy="990" rx="80" ry="35" fill="#2c6874" stroke="#5c8c84" stroke-width="3" opacity=".75"/><ellipse cx="2180" cy="1080" rx="70" ry="30" fill="#2c6874" stroke="#5c8c84" stroke-width="3" opacity=".75"/><ellipse cx="2310" cy="1180" rx="90" ry="40" fill="#2c6874" stroke="#5c8c84" stroke-width="3" opacity=".75"/><ellipse cx="1870" cy="1260" rx="65" ry="31" fill="#2c6874" stroke="#5c8c84" stroke-width="3" opacity=".75"/><ellipse cx="2100" cy="1370" rx="90" ry="45" fill="#2c6874" stroke="#5c8c84" stroke-width="3" opacity=".75"/><ellipse cx="2290" cy="1440" rx="75" ry="35" fill="#2c6874" stroke="#5c8c84" stroke-width="3" opacity=".75"/><path d="M1840 850L1940 930L2050 970" fill="none" stroke="#aa7743" stroke-width="11" stroke-dasharray="3 9"/><path d="M2070 1100L2190 1080L2320 1130" fill="none" stroke="#aa7743" stroke-width="11" stroke-dasharray="3 9"/><path d="M1960 1260L2100 1330L2250 1360" fill="none" stroke="#aa7743" stroke-width="11" stroke-dasharray="3 9"/><g transform="translate(2250 150)" opacity=".7"><circle r="10" fill="#c59d47" stroke="#40341f" stroke-width="3"/><path d="M0-65V65M-65 0H65M-42-42L42 42M42-42L-42 42" stroke="#3f4228" stroke-width="4"/></g><rect x="8" y="8" width="2384" height="1584" fill="none" stroke="#293521" stroke-width="12" opacity=".7"/></svg>