<svg xmlns="http://www.w3.org/2000/svg" width="2560" height="1440" viewBox="0 0 2560 1440"><defs><filter id="g"><feTurbulence baseFrequency=".035" numOctaves="2" seed="19"/><feComponentTransfer><feFuncA type="table" tableValues="0 .08"/></feComponentTransfer></filter><pattern id="f" width="18" height="18" patternUnits="userSpaceOnUse"><rect width="18" height="18" fill="#817743"/><path d="M0 4H18M0 12H18" stroke="#645d38" stroke-width="2"/></pattern><symbol id="t"><rect x="-4" y="8" width="8" height="22" fill="#493724"/><circle r="20" fill="#2e6836"/><circle cx="-9" cy="4" r="14" fill="#3b7a3d"/><circle cx="7" cy="-8" r="14" fill="#477f40"/></symbol><symbol id="p"><rect x="-3" y="8" width="6" height="18" fill="#493724"/><path d="M0-25L-18 15H18Z" fill="#244f31"/><path d="M0-12L-22 22H22Z" fill="#2c6338"/></symbol><symbol id="h"><rect x="-24" y="-16" width="48" height="32" rx="4" fill="#8d7450" stroke="#493824" stroke-width="4"/><path d="M-28 0L0-28L28 0L0 24Z" fill="#a98244" stroke="#4a3123" stroke-width="4"/><rect x="-4" y="6" width="8" height="12" fill="#49301f"/></symbol><symbol id="r"><rect x="-24" y="-16" width="48" height="32" rx="4" fill="#8d7450" stroke="#493824" stroke-width="4"/><path d="M-28 0L0-28L28 0L0 24Z" fill="#8a4534" stroke="#4a3123" stroke-width="4"/><rect x="-4" y="6" width="8" height="12" fill="#49301f"/></symbol></defs><rect width="2560" height="1440" fill="#5b7c3e"/><rect width="2560" height="1440" fill="#263222" filter="url(#g)"/><path d="M970 80C1200 15 1820 20 2200 145L2210 565C1840 630 1260 620 960 430Z" fill="#315b36"/><ellipse cx="1040" cy="540" rx="300" ry="210" fill="#52743d" opacity=".75"/><path d="M1800 680C2050 620 2480 690 2560 760V1440H1900C1800 1240 1760 930 1800 680Z" fill="#425e55"/><path d="M410 1220C850 1080 1540 1110 1890 1260L1810 1440H430Z" fill="#667749" opacity=".75"/><g fill="#315c60" opacity=".78"><ellipse cx="1980" cy="790" rx="46" ry="19"/><ellipse cx="2180" cy="830" rx="60" ry="22"/><ellipse cx="2380" cy="770" rx="55" ry="24"/><ellipse cx="2040" cy="990" rx="54" ry="20"/><ellipse cx="2300" cy="1040" rx="63" ry="26"/><ellipse cx="2460" cy="1150" rx="48" ry="19"/><ellipse cx="2130" cy="1240" rx="58" ry="24"/><ellipse cx="2360" cy="1320" rx="66" ry="25"/></g><g fill="none" stroke-linecap="round" stroke-linejoin="round"><path d="M1810 300L1870 470L1970 640L2100 830L2240 1110" stroke="#244b55" stroke-width="22"/><path d="M1810 300L1870 470L1970 640L2100 830L2240 1110" stroke="#4c7b79" stroke-width="12"/><path d="M2430 610L2380 820L2350 1040L2280 1380" stroke="#244b55" stroke-width="18"/><path d="M2430 610L2380 820L2350 1040L2280 1380" stroke="#4c7b79" stroke-width="10"/></g><g stroke="#425d32" stroke-width="7" fill="url(#f)"><rect x="160" y="660" width="200" height="130" rx="8"/><rect x="360" y="910" width="200" height="140" rx="8"/><rect x="200" y="1080" width="260" height="160" rx="8"/><rect x="860" y="1040" width="200" height="120" rx="8"/><rect x="920" y="1200" width="220" height="150" rx="8"/><rect x="1220" y="1080" width="220" height="150" rx="8"/><rect x="1460" y="1120" width="180" height="140" rx="8"/><rect x="1300" y="910" width="130" height="100" rx="8"/><rect x="1470" y="920" width="150" height="110" rx="8"/><rect x="1610" y="780" width="110" height="100" rx="8"/></g><g fill="none" stroke-linecap="round" stroke-linejoin="round"><g stroke="#5b4934"><path d="M0 860L320 852L660 840L940 850L1240 860L1520 864L1860 876L2200 886L2560 900" stroke-width="52"/><path d="M700 0L690 240L690 500L700 840L720 1080L744 1440" stroke-width="42"/><path d="M1070 810L1110 660L1170 550L1380 490L1520 490M1520 490L1640 380L1750 270M1230 864L1300 820L1400 780L1520 710M1520 710L1560 600L1520 490M1860 876L2020 940L2180 1000L2340 1010M700 840L860 1010L1020 1180L1200 1300" stroke-width="32"/></g><g stroke="#987e53"><path d="M0 860L320 852L660 840L940 850L1240 860L1520 864L1860 876L2200 886L2560 900" stroke-width="40"/><path d="M700 0L690 240L690 500L700 840L720 1080L744 1440" stroke-width="30"/><path d="M1070 810L1110 660L1170 550L1380 490L1520 490M1520 490L1640 380L1750 270M1230 864L1300 820L1400 780L1520 710M1520 710L1560 600L1520 490M1860 876L2020 940L2180 1000L2340 1010M700 840L860 1010L1020 1180L1200 1300" stroke-width="20"/></g></g><g fill="none"><path d="M80 630H580L600 1260M820 1000H1700V1330" stroke="#543b27" stroke-width="5"/><path d="M770 860A236 184 0 0 1 1205 750M1225 865A236 184 0 0 1 1010 1042M970 1040A236 184 0 0 1 775 900" stroke="#294a2b" stroke-width="24"/><path d="M770 860A236 184 0 0 1 1205 750M1225 865A236 184 0 0 1 1010 1042M970 1040A236 184 0 0 1 775 900" stroke="#46723b" stroke-width="12"/></g><g fill="#674528" stroke="#34271d" stroke-width="4"><rect x="756" y="834" width="16" height="52"/><rect x="1220" y="834" width="16" height="52"/><rect x="974" y="1036" width="52" height="16"/></g><g><use href="#t" transform="translate(1050 150)"/><use href="#t" transform="translate(1130 210)"/><use href="#p" transform="translate(1210 130)"/><use href="#t" transform="translate(1280 250)"/><use href="#t" transform="translate(1360 120)"/><use href="#p" transform="translate(1430 230)"/><use href="#t" transform="translate(1510 130)"/><use href="#t" transform="translate(1600 250)"/><use href="#p" transform="translate(1680 120)"/><use href="#t" transform="translate(1760 350)"/><use href="#t" transform="translate(1880 150)"/><use href="#p" transform="translate(1980 260)"/><use href="#t" transform="translate(2070 140)"/><use href="#t" transform="translate(2140 330)"/><use href="#t" transform="translate(1180 390)"/><use href="#p" transform="translate(1280 440)"/><use href="#t" transform="translate(1390 350)"/><use href="#t" transform="translate(1650 520)"/><use href="#p" transform="translate(1780 520)"/><use href="#t" transform="translate(2000 500)"/><use href="#t" transform="translate(280 500)"/><use href="#t" transform="translate(350 540)"/><use href="#t" transform="translate(430 470)"/><use href="#t" transform="translate(520 1140)"/><use href="#t" transform="translate(620 1190)"/><use href="#t" transform="translate(960 1100)"/><use href="#t" transform="translate(1730 1220)"/></g><g><use href="#h" transform="translate(840 800)"/><use href="#h" transform="translate(884 910)"/><use href="#r" transform="translate(930 764)"/><use href="#h" transform="translate(1080 780)"/><use href="#r" transform="translate(1150 910)"/><use href="#h" transform="translate(1060 950)"/><use href="#h" transform="translate(960 960)"/><use href="#h" transform="translate(1110 700)"/><use href="#h" transform="translate(850 720)"/><use href="#r" transform="translate(1030 810) scale(1.35)"/><use href="#h" transform="translate(1380 780)"/><use href="#h" transform="translate(1440 820)"/><use href="#r" transform="translate(1490 760)"/><use href="#h" transform="translate(1360 860)"/><use href="#h" transform="translate(1510 860)"/><use href="#h" transform="translate(1480 490)"/><use href="#h" transform="translate(1540 510)"/><use href="#r" transform="translate(1580 450)"/><use href="#h" transform="translate(1440 540)"/><use href="#h" transform="translate(1710 240)"/><use href="#h" transform="translate(1770 270)"/><use href="#r" transform="translate(1810 216)"/><use href="#h" transform="translate(1684 300)"/></g><g fill="#76502e" stroke="#392b20" stroke-width="4"><rect x="1898" y="882" width="68" height="20"/><rect x="2190" y="991" width="60" height="18"/></g><rect x="8" y="8" width="2544" height="1424" fill="none" stroke="#263222" stroke-width="16" opacity=".55"/></svg>